<svg id="レイヤー_1" data-name="レイヤー 1" xmlns="http://www.w3.org/2000/svg" viewBox="0 0 101.91 70"><defs><style>.cls-1{fill:#192c5f;}.cls-2{fill:#fff;}.cls-3{fill:#ffdb00;}</style></defs><title>アートボード 1</title><path class="cls-1" d="M15.18,27.64a4.55,4.55,0,0,1-4-2.32,5,5,0,0,1-.66-2c0-.12-.08-.38-.11-.54-.09-.42-.13-.62-.15-.8v0L10,20c0-.07,0-.14,0-.2l-.24-3.46-.29-3.53-.27-2.45L9,9.86A4.33,4.33,0,0,1,8.65,8a5.69,5.69,0,0,1,4.58-5.35h.07c1.35-.21,6.1-.58,7.47-.58,2.3,0,4.39.06,6.4.19l1.73.11a5.86,5.86,0,0,1,4.22,2.09,6.07,6.07,0,0,1,1.77,4.11,4.2,4.2,0,0,1-.49,1.9c-.07.13-.15.29-.19.38l-.68,3.84-.72,5.61s0,.06,0,.09l-.35,2.27v0a5.15,5.15,0,0,1-5.33,4.71H23.73L18,27.45h-.92l-.4.05A9.74,9.74,0,0,1,15.18,27.64ZM25.72,10.57Zm0,0h0Z"/><path class="cls-1" d="M51.05,29.42c-2.65,0-5-2.8-5-6a4.7,4.7,0,0,1,.13-1.06C44.5,24.2,43,25,41.47,25c-2.44,0-5.89-1.64-5.89-5.29A3.64,3.64,0,0,1,36.72,17,3.57,3.57,0,0,1,38,16.21a11.74,11.74,0,0,0,1.37-.65l1-.89a4.17,4.17,0,0,1-2.83-4c0-3.24,2.92-5.86,5.35-5.86A3.71,3.71,0,0,1,43.93,5c.29,0,.48,0,.65,0l1-.08C45.93,1.66,49.24,0,51.05,0a4.62,4.62,0,0,1,4.62,4.54l1.07,0,.2,0,2.46.26c1,.1,1.85.22,2.62.36a3.81,3.81,0,0,1,3.2,3.68A6.22,6.22,0,0,1,63,13.1a5.26,5.26,0,0,1-.86.59l1.08.81,1.69,1a2.11,2.11,0,0,1,.27.18h0a3.92,3.92,0,0,1,2,3.31c0,1.3-.65,2.38-2.34,3.85a6.15,6.15,0,0,1-4,1.9c-2.06,0-3.81-1.71-4.75-2.84l-.15.07a3.66,3.66,0,0,1-.43.15v.58h0a12.24,12.24,0,0,1-.4,3.79A4.37,4.37,0,0,1,51.05,29.42ZM61,17.22Zm4.17-1.55,0,0Zm-25.79-.14ZM61,11.79ZM60,7.72Z"/><path class="cls-1" d="M69.78,20.84a4.4,4.4,0,0,1-4.46-4.54c0-3.27,2.92-6.48,5.89-6.48a4.83,4.83,0,0,1,.94.11l1.18-.19c.49-.08.8-.13,1-.15a34.14,34.14,0,0,1,5.75-.44c3.08,0,4.35.15,9.72,1.13h0l1.66.25a14,14,0,0,1,2.36.43L94,11a3.71,3.71,0,0,1,2.42,3.46,4.47,4.47,0,0,1-1.44,3,8.79,8.79,0,0,1-1.33,1.34A6,6,0,0,1,90,20.41a7.26,7.26,0,0,1-2.86-.84l-.07,0-1.29-.32c-.22,0-.51-.13-1.06-.29l-.64-.17-.33-.08-1.83-.11-2.19,0-.56.05L76.45,19,74,19.45a10.23,10.23,0,0,0-1.38.42A4.66,4.66,0,0,1,69.78,20.84Zm18.59-1.08Zm0,0Zm0,0Zm0,0Zm0,0Zm0,0Zm0,0Zm0,0Z"/><path class="cls-2" d="M29.51,19.89l-.35,2.27c-.24,1.51-1,1.92-2.05,1.92h-3.4l-5.77.05-1,0c-.19,0-1.46.22-1.73.22-1.16,0-1.35-1.27-1.35-1.41s-.24-1.18-.27-1.37l-.27-2L13.05,16l-.3-3.59-.29-2.75A5.23,5.23,0,0,0,12,8.5,1.29,1.29,0,0,1,12,8a2.39,2.39,0,0,1,1.84-2.08c1.21-.19,5.77-.54,7-.54,2.08,0,4.13,0,6.18.19l1.75.11a2.58,2.58,0,0,1,2,1,2.87,2.87,0,0,1,.87,1.83,1.33,1.33,0,0,1-.14.41,4.17,4.17,0,0,0-.49,1.27l-.7,3.94ZM22.5,13l1.89.08h1.83c.22,0,1.27.11,1.35.11s.27-.08.32-.27.22-1.72.25-2.08l.19-2a1.51,1.51,0,0,0-.27-.64A1.4,1.4,0,0,0,27.3,8l-2-.13L22.71,7.8l-3.83.14c-.59,0-3.24.16-3.56.48A4.15,4.15,0,0,0,15.16,10l.16,2.19,0,.89c.21.11.37.11,1.61.08Zm-6.88,5.86.27,2.46c.4.24.43.27.72.27l5.29.1,3.65-.1.89,0a1,1,0,0,0,.51-.08l.08-.35.24-2.64.19-2.89c-.19-.11-.24-.11-.7-.11-.16,0-.89,0-1.13,0l-2.35-.08H18.69c-.08,0-.86.1-1,.1a7.19,7.19,0,0,0-2.19.41v.46Z"/><path class="cls-2" d="M43,16.79s1.43-1.43,1.84-1.94L46,13.28a13.08,13.08,0,0,0,1.29-2.48l-.05-.11-2.54.3c-.21,0-1.16.19-1.38.24s-1.18.38-1.4.38a1,1,0,0,1-1.08-.95,2.84,2.84,0,0,1,2-2.53c.1,0,.62.21.72.21s1-.11,1.19-.11l5.35-.4a2.23,2.23,0,0,0-.33-1.49c-.78-.59-.86-.64-.86-1,0-1.35,1.83-2,2.13-2,1.32,0,1.32,1.54,1.32,1.86s-.16,2.11-.16,2.22a.47.47,0,0,0,.16.37l.76,0,3.45.16,2.49.27c.86.08,1.67.19,2.37.32.19,0,.46.19.46.41s-1,2.35-2.48,2.08l-2.22-.41a19.11,19.11,0,0,0-2.29-.05l.57,1.08,1.37,1.83,1.84,1.76.73.64,1.91,1.43,1.86,1.08c.11.08.57.35.57.62s-2.18,2.43-3,2.43-2-1.32-2.65-2.24L57,17.65l-1.27-2,0,0L54.42,13c-.19-.35-.86-1.89-1-2.22a.49.49,0,0,0-.43-.27c-.52,0-.87,0-.87.25L52,13.52v2.65c0,.11.24.11.24.11l2.11.1c.4,0,1.3,0,1.3.65a4,4,0,0,1-.36,1.32c-.16.27-.21.3-.78.54-.24,0-1.94-.24-2.1-.24-.38,0-.38.19-.38.46a4.69,4.69,0,0,1,0,.65S52,20,52,20l.08,2.75a10.12,10.12,0,0,1-.21,2.59,1.12,1.12,0,0,1-.84.73c-.62,0-1.65-1.13-1.65-2.67a14.6,14.6,0,0,1,.54-2,9.35,9.35,0,0,0,.27-2.56.24.24,0,0,0-.16-.08c-.11,0-.86.18-1,.21a12.15,12.15,0,0,1-1.62.24c-.43,0-.68-.59-.68-1,0-1,.79-2.08,1.22-2.08,0,0,.64.14.75.14l1.51,0,0-3.84a12.1,12.1,0,0,0-.08-1.7.53.53,0,0,0-.27-.13,3.89,3.89,0,0,0-.54.13l-.19.38L48.3,13c-.08.14-.43.73-.52.86s-.64,1.46-.78,1.7l-1.35,2.22c-.16.27-2.78,3.91-4.18,3.91-.22,0-2.56-.22-2.56-2a.38.38,0,0,1,.16-.38,14.26,14.26,0,0,0,2.35-1.21Z"/><path class="cls-2" d="M79.58,15.22l-.81.08-2.86.41-2.54.48A10.44,10.44,0,0,0,71,17c-.75.48-.81.54-1.21.54a1.12,1.12,0,0,1-1.13-1.22c0-1.45,1.51-3.15,2.56-3.15.14,0,.73.13.86.13.3,0,2.3-.35,2.73-.4a31,31,0,0,1,5.29-.41c2.78,0,3.83.11,9.12,1.08.57.11,3.43.51,3.59.57s.32.13.32.37a8.71,8.71,0,0,1-1.48,1.73,3.37,3.37,0,0,1-1.65.87,5.78,5.78,0,0,1-1.37-.49c-.06,0-.22-.16-.25-.16L86.51,16c-.27-.06-1.54-.43-1.81-.49-.08,0-.43-.1-.51-.1L82,15.25Z"/><path class="cls-3" d="M10.4,44.82l-3.48.33c-.59.07-3.15.72-3.71.72a1,1,0,0,1-1-.92,2.54,2.54,0,0,1,1.12-1.8c.49-.3.59-.36,1.64-.36h.39l5.22-.59c.39,0,2.52-.13,3-.1l.07-.07a3.37,3.37,0,0,1,0-.55c0-.23,0-.23-.1-.36l-3.38.06c-.06,0-2.13.26-2.52.26a14.56,14.56,0,0,0-2.07.2,3,3,0,0,1-.66.07A.84.84,0,0,1,4,40.82c0-.43.2-.85,1-1.7l.27-.1L8,38.85l.43,0,4.88-.2.07-.06V37.8c0-.49-.13-.55-.43-.55a6.18,6.18,0,0,0-.78.06l-2.53.13H8.79l-2.95.36a11.26,11.26,0,0,0-1.54.3,5.15,5.15,0,0,1-1.12.29,1.12,1.12,0,0,1-1.24-1c0-.3.36-1.9,1.6-2.07L6.2,35l4.43-.29v-.07c-.3-.19-1.71-.85-2-1-1.74-.26-1.94-.3-1.94-.76,0-1.08,1.94-2.06,2.56-2.06,1.21,0,2.82,1.9,3.61,3a5.59,5.59,0,0,0,.46.66H16.4l.49,0c.2,0,.26-.09.69-1s1.61-2.95,3.22-2.95c1.21,0,3,1,3,1.71,0,.26-.1.29-1.15.49a4.31,4.31,0,0,0-2.82,1.74l4.4.26c.06,0,2.29.29,2.56.29,1.31.17,1.31.63,1.31.86,0,1-1.68,2.1-2,2.1a2.48,2.48,0,0,1-.92-.23l-2.86-.46-3.44-.2c-.36,0-2.07,0-2.46,0,0,.16-.2,1-.23,1.08a2.37,2.37,0,0,0,0,.46l3.25,0,3.08.07c.23,0,1.25.16,1.45.16.95.07,1.08.3,1.21.56-.06.39-.36,1.93-1.38,1.93l-.95-.06-2.72-.26-.66,0h-3c-.53,0-.5.17-.5,1l5.91.39,3.77.3c1.61.13,2,.16,2,.72a3.58,3.58,0,0,1-.53,1.34,2.15,2.15,0,0,1-1.34.56l-4.36-.46-3.25-.23-2.23-.06V46L20,46.4l4.26.59,4.59.88a3.93,3.93,0,0,1,1.28.4c0,.59-.1.75-.95,2a1.57,1.57,0,0,1-1.61.88,2.63,2.63,0,0,1-.88-.13l-3.61-1.18-3.38-.72A7.19,7.19,0,0,0,18,49l-.1,0,0,.1c.29.29,1.64,1.67,1.87,1.83l2.33,1.58c.22.16,1.83.88,2,1l2,.69a9.05,9.05,0,0,0,2.5.53c.49,0,.75,0,.75.32,0,.66-2.56,3-3.81,3-1.64,0-4.75-2.17-6.06-3.58l-1.74-1.84c-.72-.75-.79-.85-1.08-1.18s-1.19-1.7-1.41-2l-.1,0a14.19,14.19,0,0,1-3.32,4.33L9.58,55.45,7.35,56.93a4.31,4.31,0,0,1-2.13,1c-1.51,0-4.07-1.74-4.07-3a.94.94,0,0,1,.13-.43,3.3,3.3,0,0,1,.52-.13,9.11,9.11,0,0,0,3-.36l2.52-1,1.9-1,2.63-1.64A4.24,4.24,0,0,0,13,48.73l-.16-.07-.89.13-2.66.59-1.9.56L5,50.86c-.63.23-2.14.79-2.69,1.08a3,3,0,0,1-1.18.33C.3,52.27,0,51.68,0,51c0-.56.43-2.43,1.61-2.82s9.94-2,11.22-2c.75,0,.82,0,.82-1a1.58,1.58,0,0,0-.1-.46Z"/><path class="cls-3" d="M36.74,52.4a8.29,8.29,0,0,0,4.06-6.17,6.48,6.48,0,0,0-.16-1.41,2.35,2.35,0,0,1-.3-.59c0-.88,1.12-1.47,1.42-1.47S43,43.12,43,44.49c0,5-3.05,12.9-5.08,12.9-.79,0-2.26-1.48-2.26-3A2,2,0,0,1,36.74,52.4Zm1.18-15.29c.85,0,4.36,2.4,4.36,3.55,0,.46-.69.72-1.08.72-.56,0-3.25-.76-3.41-.76-.76,0-2,0-2-.95A2.63,2.63,0,0,1,37.92,37.11Zm2.2-1.67s-.86,0-1.19,0a1.2,1.2,0,0,1-.88-1.15A2.72,2.72,0,0,1,39.82,32c1.21,0,1.44.26,2.53,1.47.65.79,1.57,1.84,1.57,2.5a.7.7,0,0,1-.62.72,17.57,17.57,0,0,1-2.69-1.08Zm11.05,2.72c0-.29-.1-1.47-.1-1.73-.06-1-.06-1-.36-1.28a24,24,0,0,0-3.61.59c-.26.06-1.41.52-1.67.52A1.29,1.29,0,0,1,44.25,35c0-1.31,1.8-2.76,2.82-2.76.16,0,1,.14,1.18.14s.92-.07,1.18-.1c.56,0,1.44-.1,2.36-.1.76,0,4.17-.16,4.73-.16.39,0,4.1.13,5.93.39.4.06,2.1.23,2.43.36s.26.23.26.29c0,.63-1.6,2.86-3,2.86-.33,0-1.77-.49-2.07-.53s-1.93-.19-2.26-.23a10,10,0,0,0-.39,3l.06.1,3.74.19a4.31,4.31,0,0,1,4,3,1.24,1.24,0,0,1-.69,1.28,2.82,2.82,0,0,0-.72,1.8l0,3.35.32,3.7.43,2.3a5.29,5.29,0,0,1,.13,1c0,1.78-2.23,2.5-2.43,2.5a8,8,0,0,1-1.54-.63c-.23,0-2.06-.29-2.26-.29l-3.67-.16L51,56.3l-3.18.33c-.07,0-2.1.53-2.26.53a1.7,1.7,0,0,1-1.45-1.38c0-.66.4-3.15.53-4,.06-.52.26-4.75.26-5.47,0-.5-.13-2.6-.13-3,0-.59,0-.66-.23-1a2.08,2.08,0,0,1-.39-.82A3.48,3.48,0,0,1,45.59,39,5.6,5.6,0,0,1,48,38.39c2.53-.13,2.79-.13,3-.16ZM55.43,41l-.06-.1-2.2.06-.1.07a14.75,14.75,0,0,0-.2,1.61c-.62,2.88-1.27,3.64-1.7,4.06a3.36,3.36,0,0,1-1.51.89,2.79,2.79,0,0,1-1-.3c-.13-.06-.88-.72-1.08-.85l-.06.07-.17,3.6v.5l-.16,2.59c0,.42,0,.69.46.69s2.95-.14,3.47-.17c1.28-.06,1.94-.06,4.76-.06.49,0,4.89,0,5,0,.46-.06.53-.26.56-.75s0-2.82,0-3.38a26,26,0,0,0-.16-3.67c-.2.13-.92.95-1.12,1.08a1.9,1.9,0,0,1-1.14.49,5.34,5.34,0,0,1-2.83-1.11c-.75-.79-.78-1.35-.75-2.82Zm-7.74,3.77a6.41,6.41,0,0,0,2.4-1.68,4.19,4.19,0,0,0,.72-1.83c0-.1,0-.2-.17-.2s-2.19.13-2.42.16c-.43.07-.43.23-.43.63Zm2.5,3.51c.09,0,.82.1.91.1a10.17,10.17,0,0,0,1-.23A14.82,14.82,0,0,1,54.06,48a27.08,27.08,0,0,1,4.72.86c.23.06,1.31.19,1.51.29a.27.27,0,0,1,.13.27c0,.16-.76,2.06-1.94,2.06-.16,0-1-.2-1.14-.23a10.64,10.64,0,0,0-3.15-.59,9.11,9.11,0,0,0-3.35.53c-.33.09-1.57.65-1.84.65a1,1,0,0,1-.88-1A3.34,3.34,0,0,1,50,48.17Zm5.37-10.14a20.63,20.63,0,0,0-.13-2.59c0-.46,0-.62-.29-.62s-1.67,0-1.74,0c-.26.16-.33,2.56-.33,2.85s0,.3.13.36A18.56,18.56,0,0,0,55.56,38.13Zm2.53,2.72c-.56,0-.59,0-.59,2.5,0,1,.52,1.11,1.84,1.11.19,0,1.18-.1,1.28-.1.59,0,.65,0,.65-.23,0-.42-.2-2.29-.23-2.65,0-.2,0-.46-.56-.49Z"/><path class="cls-3" d="M76.1,43.28c0-.06-.13-2-.17-2.39-.1-1.12-.65-2.4-1.05-2.46-.72-.1-.78-.1-.91-.46a1.7,1.7,0,0,1-.23-.59,2.23,2.23,0,0,1,.65-1.71,5.08,5.08,0,0,1,2.13-1.41c1,0,1.84,1.05,1.94,3.35l.13,2.82,0,4.29c0,.2-.06,1.12-.06,1.32,0,0,0,.06.06.13l.63-.07,3.21-.29,3.9-.1h3l2.79.13,8.17.89c1.48.16,1.54.39,1.54.68,0,.89-2.06,2.86-2.88,2.86a7.68,7.68,0,0,1-1.25-.43l-2.85-.65a20.08,20.08,0,0,0-2.3-.43L89,48.63c-.33,0-.53,0-.53.52l0,7.91a2.73,2.73,0,0,1-.59,1.54A4,4,0,0,1,87,59c-.65,0-1.73-1.44-1.73-3a5.65,5.65,0,0,1,.36-1.54A21.25,21.25,0,0,0,85.94,51c0-.27-.1-2.1-.13-2.2s-.1-.2-.73-.16L82,48.79l-3.9.69-.59.2c-.5.26-1.25.65-1.71,1-.79.49-.89.56-1.18.56a1.23,1.23,0,0,1-1.31-1.28A5.22,5.22,0,0,1,74.79,47c.85-.39,1.41-.66,1.31-1.41Zm5.64,10.5-.82.88-2,1.74a5.35,5.35,0,0,1-2.56,1.22c-.82,0-2.43-1.38-2.43-2.37,0-.09.17-1,.66-1,1.8,0,5.87-2.46,5.87-3.11,0-.1-.16-.59-.16-.69s.19-.79,1.7-.72c.4.13,1.58.49,1.58,1.47,0,.2,0,.26-.46.79Zm-.07-13.55-.19-2.46a6.79,6.79,0,0,0-.76-3c-.46-.53-.49-.56-.49-.92a3.47,3.47,0,0,1,1.61-2.36,10.07,10.07,0,0,1,3.84-.63l4.72-.06c1.57,0,3.25,0,4.43.92a2,2,0,0,1,.88,1.67c0,.2-.59.92-.65,1.08-.33,1.12-.86,7.77-.89,7.91-.26,1.14-.29,1.24-.49,1.44a3.13,3.13,0,0,1-1.31.62c-.3,0-1.74.07-2,.07-.65,0-3.51-.1-4.06-.1-1.25,0-2.69.13-3,.13a4.85,4.85,0,0,1-.59.1c-.62,0-.89-1.18-1-1.84ZM83.9,35l5.91-.06,1.83,0c.37-.07.46-.75.46-1.05a3,3,0,0,0-.09-.46h-.43l-3.12-.06-4.16.19c-.26,0-.36.07-.43.17l0,1.18Zm.17,3.64,4.1-.06,3.74-.1,0-1.38,0-.06-.72,0-4.3,0a17.33,17.33,0,0,0-2.92.26v.33Zm4.29,3.25h3.28a4.23,4.23,0,0,0,.2-1.61l-.06-.06-.59-.07H87.05c-.16,0-2.69.17-2.85.23a.34.34,0,0,0,0,.33l.06,1.12Zm4.07,8.07a1.06,1.06,0,0,1,1.12.79c0,.1-.13.49-.13.52a3,3,0,0,0,1.67,1.51c.62.23,3.38,1.38,4,1.58.85.29,1,.32,1,.62,0,.59-1.87,2.29-3.08,2.29A3.76,3.76,0,0,1,94.47,56c-.43-.43-2.3-2.27-2.63-2.66A3.61,3.61,0,0,1,91,51.48,1.48,1.48,0,0,1,92.43,49.94Z"/><path class="cls-2" d="M20.46,64.9v1.43a1.48,1.48,0,0,1,.42-.3,1.37,1.37,0,0,1,.49-.09,1.25,1.25,0,0,1,.95.42,1.64,1.64,0,0,1,0,2.16,1.26,1.26,0,0,1-1,.43,1.14,1.14,0,0,1-.46-.09,1.26,1.26,0,0,1-.43-.29v.31h-.71v-4Zm.76,1.7a.74.74,0,0,0-.56.23.85.85,0,0,0-.23.61.88.88,0,0,0,.23.62.74.74,0,0,0,.56.23.72.72,0,0,0,.55-.24.85.85,0,0,0,.23-.61.81.81,0,0,0-.22-.6A.74.74,0,0,0,21.22,66.6Z"/><path class="cls-2" d="M24.4,64.83a.42.42,0,0,1,.33.14.48.48,0,0,1,0,.66.44.44,0,0,1-.32.13.42.42,0,0,1-.33-.14.46.46,0,0,1,0-.66A.44.44,0,0,1,24.4,64.83ZM24,66h.72v2.87H24Z"/><path class="cls-2" d="M28,66.41l-.45.45a.74.74,0,0,0-.49-.27.29.29,0,0,0-.19,0,.17.17,0,0,0-.07.13.16.16,0,0,0,0,.1A.73.73,0,0,0,27,67l.27.13a1.5,1.5,0,0,1,.57.42.89.89,0,0,1-.13,1.14A1.06,1.06,0,0,1,27,69a1.18,1.18,0,0,1-1-.49l.44-.48a1,1,0,0,0,.3.24.64.64,0,0,0,.3.09.35.35,0,0,0,.23-.07.21.21,0,0,0,.09-.16c0-.11-.11-.22-.32-.32l-.24-.12c-.46-.24-.7-.53-.7-.88a.74.74,0,0,1,.27-.58.93.93,0,0,1,.67-.24,1.17,1.17,0,0,1,.52.12A1.1,1.1,0,0,1,28,66.41Z"/><path class="cls-2" d="M29.09,66h.74l.74,1.8.82-1.8h.74l-1.8,3.92h-.74l.59-1.27Z"/><path class="cls-2" d="M33.35,66h.72v1.38a1.75,1.75,0,0,0,.06.56.45.45,0,0,0,.18.24.49.49,0,0,0,.3.09.62.62,0,0,0,.31-.08.55.55,0,0,0,.18-.26,1.8,1.8,0,0,0,0-.53V66h.72v1.21a2.91,2.91,0,0,1-.12,1,1.11,1.11,0,0,1-.43.52,1.33,1.33,0,0,1-.72.18,1.29,1.29,0,0,1-.76-.21,1.15,1.15,0,0,1-.41-.59,3.9,3.9,0,0,1-.08-1Z"/><path class="cls-2" d="M37.4,64.9h.72v2.29L39.18,66h.91l-1.24,1.37,1.38,1.5h-.89l-1.22-1.32v1.32H37.4Z"/><path class="cls-2" d="M44.21,67.65H41.9a.73.73,0,0,0,.27.49.83.83,0,0,0,.55.18,1,1,0,0,0,.7-.28l.6.28a1.45,1.45,0,0,1-.54.48,1.73,1.73,0,0,1-.75.15,1.46,1.46,0,0,1-1.53-1.49,1.51,1.51,0,0,1,.43-1.09,1.4,1.4,0,0,1,1.06-.43,1.46,1.46,0,0,1,1.1.43,1.57,1.57,0,0,1,.42,1.14Zm-.72-.56a.68.68,0,0,0-.28-.39.76.76,0,0,0-.49-.16.85.85,0,0,0-.52.17.91.91,0,0,0-.27.38Z"/><path class="cls-2" d="M45.6,66h.72v.29a1.79,1.79,0,0,1,.45-.28,1,1,0,0,1,.4-.08,1,1,0,0,1,.73.29,1.06,1.06,0,0,1,.25.75v1.9h-.71V67.62a3.12,3.12,0,0,0,0-.68.46.46,0,0,0-.16-.26.45.45,0,0,0-.28-.09.54.54,0,0,0-.38.15.8.8,0,0,0-.21.41,2.31,2.31,0,0,0,0,.58v1.15H45.6Z"/><path class="cls-2" d="M51.65,66h.74l.74,1.8L54,66h.73L52.9,69.93h-.75l.59-1.27Z"/><path class="cls-2" d="M58,66h.72v2.87H58v-.31a1.33,1.33,0,0,1-.42.29,1.18,1.18,0,0,1-.46.09,1.26,1.26,0,0,1-1-.43,1.5,1.5,0,0,1-.41-1.07,1.55,1.55,0,0,1,.39-1.09A1.31,1.31,0,0,1,57.61,66a1.48,1.48,0,0,1,.42.3Zm-.76.59a.72.72,0,0,0-.55.24.81.81,0,0,0-.22.6.85.85,0,0,0,.22.61.74.74,0,0,0,.56.24.77.77,0,0,0,.56-.23.87.87,0,0,0,.22-.62.85.85,0,0,0-.22-.61A.78.78,0,0,0,57.27,66.6Z"/><path class="cls-2" d="M60.28,66H61v.33a1.06,1.06,0,0,1,.41-.3,1.13,1.13,0,0,1,.49-.1.92.92,0,0,1,.49.13,1,1,0,0,1,.35.38,1.09,1.09,0,0,1,.42-.38,1.08,1.08,0,0,1,.54-.13,1,1,0,0,1,.54.14.78.78,0,0,1,.33.37,1.94,1.94,0,0,1,.1.75v1.68H64V67.42a1.28,1.28,0,0,0-.12-.66.43.43,0,0,0-.37-.17.51.51,0,0,0-.33.11.58.58,0,0,0-.21.29,1.7,1.7,0,0,0-.07.59v1.3h-.73V67.49a1.88,1.88,0,0,0-.06-.56.48.48,0,0,0-.17-.26.46.46,0,0,0-.27-.08.57.57,0,0,0-.33.11.62.62,0,0,0-.22.3,1.77,1.77,0,0,0-.07.6v1.28h-.72Z"/><path class="cls-2" d="M68.29,66H69v2.87h-.72v-.31a1.36,1.36,0,0,1-.43.29,1.14,1.14,0,0,1-.46.09,1.26,1.26,0,0,1-1-.43,1.5,1.5,0,0,1-.4-1.07,1.55,1.55,0,0,1,.39-1.09,1.25,1.25,0,0,1,.95-.42,1.33,1.33,0,0,1,.49.09,1.48,1.48,0,0,1,.42.3Zm-.76.59a.74.74,0,0,0-.56.24.93.93,0,0,0,0,1.21.72.72,0,0,0,.55.24.74.74,0,0,0,.56-.23.88.88,0,0,0,.23-.62.85.85,0,0,0-.23-.61A.74.74,0,0,0,67.53,66.6Z"/><path class="cls-2" d="M72.66,66h.72v2.46a1.67,1.67,0,0,1-.29,1.07A1.48,1.48,0,0,1,71.9,70a2.08,2.08,0,0,1-.71-.11,1.24,1.24,0,0,1-.77-.8h.79a.64.64,0,0,0,.27.18,1.14,1.14,0,0,0,.39.06,1,1,0,0,0,.47-.09.51.51,0,0,0,.25-.23,1.15,1.15,0,0,0,.07-.49,1.09,1.09,0,0,1-.4.27,1.16,1.16,0,0,1-.47.09,1.28,1.28,0,0,1-1-.42,1.45,1.45,0,0,1-.4-1,1.48,1.48,0,0,1,.42-1.1,1.25,1.25,0,0,1,.91-.37,1.23,1.23,0,0,1,.47.09,1.44,1.44,0,0,1,.44.3Zm-.74.6a.74.74,0,0,0-.57.23.81.81,0,0,0-.22.57.82.82,0,0,0,.23.59.78.78,0,0,0,.57.23.73.73,0,0,0,.55-.23.89.89,0,0,0,0-1.17A.75.75,0,0,0,71.92,66.61Z"/><path class="cls-2" d="M77,66h.72v2.87H77v-.31a1.33,1.33,0,0,1-.42.29,1.18,1.18,0,0,1-.46.09,1.26,1.26,0,0,1-1-.43,1.64,1.64,0,0,1,0-2.16,1.24,1.24,0,0,1,.95-.42,1.28,1.28,0,0,1,.48.09,1.48,1.48,0,0,1,.42.3Zm-.76.59a.72.72,0,0,0-.55.24.81.81,0,0,0-.22.6.85.85,0,0,0,.22.61.74.74,0,0,0,.56.24.77.77,0,0,0,.56-.23.87.87,0,0,0,.22-.62.85.85,0,0,0-.22-.61A.78.78,0,0,0,76.27,66.6Z"/><path class="cls-2" d="M79.37,65h.72V66h.43v.62h-.43v2.25h-.72V66.63H79V66h.36Z"/><path class="cls-2" d="M83.83,66h.72v2.87h-.72v-.31a1.33,1.33,0,0,1-.42.29A1.14,1.14,0,0,1,83,69a1.26,1.26,0,0,1-1-.43,1.64,1.64,0,0,1,0-2.16,1.25,1.25,0,0,1,1-.42,1.28,1.28,0,0,1,.48.09,1.48,1.48,0,0,1,.42.3Zm-.75.59a.73.73,0,0,0-.56.24.81.81,0,0,0-.22.6.85.85,0,0,0,.23.61.72.72,0,0,0,.55.24.77.77,0,0,0,.56-.23.87.87,0,0,0,.22-.62.85.85,0,0,0-.22-.61A.77.77,0,0,0,83.08,66.6Z"/></svg>