<svg id="レイヤー_1" data-name="レイヤー 1" xmlns="http://www.w3.org/2000/svg" viewBox="0 0 269.24 41.44"><defs><style>.cls-1{fill:#fff;}.cls-2{fill:#192c5f;}.cls-3{fill:#ffdb00;}</style></defs><title>アートボード 1</title><path class="cls-1" d="M103.56,36.44v1.39a1.4,1.4,0,0,1,.42-.28,1,1,0,0,1,.47-.1,1.23,1.23,0,0,1,.94.42,1.54,1.54,0,0,1,.38,1.07,1.48,1.48,0,0,1-.4,1.05,1.25,1.25,0,0,1-.94.42,1.13,1.13,0,0,1-.45-.09,1.46,1.46,0,0,1-.42-.28v.3h-.7v-3.9Zm.74,1.66a.75.75,0,0,0-.55.23.8.8,0,0,0-.22.59.83.83,0,0,0,.22.61.77.77,0,0,0,1.1,0,.89.89,0,0,0,.22-.6.84.84,0,0,0-.22-.6A.73.73,0,0,0,104.3,38.1Z"/><path class="cls-1" d="M107.42,36.37a.42.42,0,0,1,.32.13.44.44,0,0,1,.13.33.44.44,0,0,1-.13.32.42.42,0,0,1-.31.13.42.42,0,0,1-.32-.13.45.45,0,0,1-.14-.33.43.43,0,0,1,.14-.32A.4.4,0,0,1,107.42,36.37Zm-.35,1.15h.71v2.82h-.71Z"/><path class="cls-1" d="M110.93,37.92l-.44.43a.72.72,0,0,0-.48-.26.36.36,0,0,0-.19,0,.16.16,0,0,0-.06.13.14.14,0,0,0,0,.1.77.77,0,0,0,.21.13l.26.13a1.47,1.47,0,0,1,.56.41.81.81,0,0,1,.15.49.83.83,0,0,1-.27.63,1.1,1.1,0,0,1-.74.25,1.16,1.16,0,0,1-1-.48l.43-.48a1,1,0,0,0,.29.24.64.64,0,0,0,.3.09.36.36,0,0,0,.22-.07.19.19,0,0,0,.09-.16c0-.1-.1-.21-.31-.31l-.24-.12c-.45-.23-.68-.52-.68-.86a.76.76,0,0,1,.26-.57.92.92,0,0,1,.66-.24,1.13,1.13,0,0,1,.51.12A1.15,1.15,0,0,1,110.93,37.92Z"/><path class="cls-1" d="M112,37.52h.72l.73,1.77.81-1.77H115l-1.76,3.84h-.73l.58-1.23Z"/><path class="cls-1" d="M116.19,37.52h.71v1.36a1.76,1.76,0,0,0,.06.55.46.46,0,0,0,.17.24.6.6,0,0,0,.6,0,.52.52,0,0,0,.18-.25,1.9,1.9,0,0,0,0-.52V37.52h.71v1.2a2.79,2.79,0,0,1-.12,1,1.1,1.1,0,0,1-.41.51,1.29,1.29,0,0,1-.71.18,1.23,1.23,0,0,1-.75-.21,1.11,1.11,0,0,1-.4-.58,3.76,3.76,0,0,1-.08-.93Z"/><path class="cls-1" d="M120.17,36.44h.7v2.24l1-1.16h.89l-1.22,1.35,1.36,1.47h-.87l-1.2-1.3v1.3h-.7Z"/><path class="cls-1" d="M126.84,39.13h-2.27a.77.77,0,0,0,.27.48.8.8,0,0,0,.54.18.93.93,0,0,0,.68-.28l.59.28a1.32,1.32,0,0,1-.53.47,1.68,1.68,0,0,1-.74.15A1.44,1.44,0,0,1,123.89,39a1.45,1.45,0,0,1,.42-1.07,1.36,1.36,0,0,1,1-.43,1.43,1.43,0,0,1,1.08.43,1.54,1.54,0,0,1,.41,1.12Zm-.71-.55a.62.62,0,0,0-.27-.38.81.81,0,0,0-.48-.15.85.85,0,0,0-.52.16,1,1,0,0,0-.26.37Z"/><path class="cls-1" d="M128.2,37.52h.71v.29a1.72,1.72,0,0,1,.43-.28,1.14,1.14,0,0,1,.4-.08,1,1,0,0,1,.71.29,1,1,0,0,1,.25.74v1.86H130V39.1a3,3,0,0,0-.05-.66.39.39,0,0,0-.43-.34.55.55,0,0,0-.37.14.81.81,0,0,0-.21.4,3.33,3.33,0,0,0,0,.57v1.13h-.71Z"/><path class="cls-1" d="M134.13,37.52h.72l.73,1.77.81-1.77h.72l-1.76,3.84h-.73l.58-1.23Z"/><path class="cls-1" d="M140.38,37.52h.71v2.82h-.71V40a1.43,1.43,0,0,1-.41.28,1.13,1.13,0,0,1-.45.09,1.23,1.23,0,0,1-.94-.42,1.48,1.48,0,0,1-.4-1.05,1.54,1.54,0,0,1,.38-1.07,1.23,1.23,0,0,1,.94-.42,1.07,1.07,0,0,1,.47.1,1.25,1.25,0,0,1,.41.28Zm-.74.58a.71.71,0,0,0-.54.23.93.93,0,0,0,0,1.2.74.74,0,0,0,.54.23.73.73,0,0,0,.55-.23.83.83,0,0,0,.22-.61.8.8,0,0,0-.22-.59A.73.73,0,0,0,139.64,38.1Z"/><path class="cls-1" d="M142.59,37.52h.7v.33a1.17,1.17,0,0,1,.41-.3,1.21,1.21,0,0,1,.48-.1,1,1,0,0,1,.47.13A.84.84,0,0,1,145,38a1.17,1.17,0,0,1,.42-.38,1.19,1.19,0,0,1,.53-.13,1,1,0,0,1,.53.14.84.84,0,0,1,.33.37,2.07,2.07,0,0,1,.1.73v1.65h-.72V38.91a1.34,1.34,0,0,0-.11-.65.42.42,0,0,0-.36-.17.52.52,0,0,0-.32.11.62.62,0,0,0-.22.28,2,2,0,0,0-.07.59v1.27h-.71V39a2.22,2.22,0,0,0,0-.54.48.48,0,0,0-.17-.25.4.4,0,0,0-.27-.09.54.54,0,0,0-.32.11.56.56,0,0,0-.21.29,1.69,1.69,0,0,0-.08.59v1.26h-.7Z"/><path class="cls-1" d="M150.43,37.52h.71v2.82h-.71V40a1.3,1.3,0,0,1-.41.28,1.13,1.13,0,0,1-.45.09,1.25,1.25,0,0,1-.94-.42,1.48,1.48,0,0,1-.4-1.05,1.5,1.5,0,0,1,.39-1.07,1.2,1.2,0,0,1,.93-.42,1,1,0,0,1,.47.1,1.25,1.25,0,0,1,.41.28Zm-.74.58a.73.73,0,0,0-.54.23.93.93,0,0,0,0,1.2.77.77,0,0,0,1.1,0,.88.88,0,0,0,.22-.61.84.84,0,0,0-.22-.59A.75.75,0,0,0,149.69,38.1Z"/><path class="cls-1" d="M154.72,37.52h.71v2.41a1.59,1.59,0,0,1-.29,1,1.45,1.45,0,0,1-1.16.46,2,2,0,0,1-.7-.11,1.35,1.35,0,0,1-.47-.3,1.21,1.21,0,0,1-.29-.49h.78a.64.64,0,0,0,.27.18,1,1,0,0,0,.38.06,1,1,0,0,0,.46-.09.52.52,0,0,0,.24-.22,1.15,1.15,0,0,0,.07-.48,1.07,1.07,0,0,1-.39.26,1.11,1.11,0,0,1-.46.09,1.28,1.28,0,0,1-1-.41,1.46,1.46,0,0,1-.39-1,1.42,1.42,0,0,1,.42-1.07,1.22,1.22,0,0,1,.89-.37,1.18,1.18,0,0,1,.46.09,1.55,1.55,0,0,1,.43.29Zm-.73.59a.78.78,0,0,0-.55.22.81.81,0,0,0-.22.57.78.78,0,0,0,.23.57.75.75,0,0,0,.55.23.78.78,0,0,0,.55-.22.81.81,0,0,0,.21-.58.77.77,0,0,0-.22-.57A.71.71,0,0,0,154,38.11Z"/><path class="cls-1" d="M159,37.52h.7v2.82H159V40a1.46,1.46,0,0,1-.42.28,1.13,1.13,0,0,1-.45.09,1.26,1.26,0,0,1-.94-.42,1.53,1.53,0,0,1-.4-1.05,1.5,1.5,0,0,1,.39-1.07,1.21,1.21,0,0,1,.93-.42,1.12,1.12,0,0,1,.48.1,1.5,1.5,0,0,1,.41.28Zm-.74.58a.75.75,0,0,0-.55.23.88.88,0,0,0-.21.6.84.84,0,0,0,.22.6.71.71,0,0,0,.54.23.75.75,0,0,0,.55-.23.88.88,0,0,0,.22-.61.84.84,0,0,0-.22-.59A.75.75,0,0,0,158.27,38.1Z"/><path class="cls-1" d="M161.3,36.49H162v1h.42v.61H162v2.21h-.71V38.13h-.36v-.61h.36Z"/><path class="cls-1" d="M165.67,37.52h.71v2.82h-.71V40a1.43,1.43,0,0,1-.41.28,1.13,1.13,0,0,1-.45.09,1.23,1.23,0,0,1-.94-.42,1.48,1.48,0,0,1-.4-1.05,1.54,1.54,0,0,1,.38-1.07,1.23,1.23,0,0,1,.94-.42,1.07,1.07,0,0,1,.47.1,1.25,1.25,0,0,1,.41.28Zm-.74.58a.71.71,0,0,0-.54.23.93.93,0,0,0,0,1.2.74.74,0,0,0,.54.23.73.73,0,0,0,.55-.23.83.83,0,0,0,.22-.61.8.8,0,0,0-.22-.59A.73.73,0,0,0,164.93,38.1Z"/><path class="cls-2" d="M211,27.86a3.79,3.79,0,0,1-2.82-1.3,6.81,6.81,0,0,1-1.46-4.33l-.21-2.13a4.41,4.41,0,0,0-.19-.86,3.82,3.82,0,0,1-1.41-3,5.78,5.78,0,0,1,5.35-5.61c1.65,0,3.7.82,4.11,4.73l.26,2.44,0,.27L215,18h.5V10.6c0-.72,0-1.11,0-1.31a5.2,5.2,0,0,1-1-2.89c0-3,2.5-5.66,5.24-5.66a4.31,4.31,0,0,1,3.11,1.34,5.19,5.19,0,0,1,1.31,4L224,9.79l-.14,5.55.08,2.32V18l.62,0,.38,0,.45-1.87c.52-2.19,1.39-5.87,4.84-5.87,2.58,0,4.93,2.66,4.93,5.58A3.52,3.52,0,0,1,233.53,19a4.14,4.14,0,0,0-.2.53l-.48,2,0,.21c0,.33-.12.68-.14.78l0,.14c0,.11-.06.27-.09.44a8.46,8.46,0,0,1-.58,2.05,4,4,0,0,1-3.59,2.65,4.76,4.76,0,0,1-2.33-.52l-.73-.38-2.93-.24L220,26.64l-4,.08-2.13.16-.36.08A5,5,0,0,1,211,27.86Z"/><path class="cls-1" d="M218.54,20.07V10.6c0-2-.17-2.33-.31-2.58-.65-1.11-.71-1.25-.71-1.62a2.71,2.71,0,0,1,2.24-2.66c.11,0,1.53,0,1.42,2.21L221,9.63l-.14,5.73.08,2.41,0,3.12L221,21l.88,0,2.49.12,2.33.17.36.05c.15,0,.26-.45.32-.68l.87-3.68c.77-3.23,1.34-3.57,1.93-3.57a2.56,2.56,0,0,1,1.93,2.58c0,.45-.09.48-.65.82a4.45,4.45,0,0,0-1.08,2.07l-.51,2.12c0,.15-.11.77-.14.88s-.34,1.73-.48,2c-.43.87-.63,1-.91,1a1.93,1.93,0,0,1-1-.2c-1.11-.6-1.22-.65-1.68-.68l-3.17-.26L220,23.64l-4.14.08-2.3.17a5.56,5.56,0,0,0-1.36.37,6,6,0,0,1-1.22.6c-.91,0-1.36-1.93-1.27-2.7l-.23-2.35a4.94,4.94,0,0,0-.91-2.55c-.62-.57-.68-.62-.68-1.05a2.82,2.82,0,0,1,2.35-2.61c.94,0,1,1.05,1.14,2.13l.25,2.44.49,2.94c0,.12.17.12.25.12.26,0,1.33-.09,1.56-.09s1.19-.14,1.39-.17l3.12,0Z"/><path class="cls-2" d="M251.36,27.86A5,5,0,0,1,247,24.32c-.31.48-.63.9-.93,1.28a4,4,0,0,1-3.39,1.77c-2.89,0-5.83-3.32-5.83-5.72A3.52,3.52,0,0,1,239,18.34a9.83,9.83,0,0,0,1.72-1.75A4.12,4.12,0,0,1,237,12.3a6.29,6.29,0,0,1,2.73-4.93,4.49,4.49,0,0,1-.41-1.9,5.25,5.25,0,0,1,4.9-5.3,3.6,3.6,0,0,1,.61.06l2-.12,3.17,0,2.31,0c1.2,0,4.51,0,5.4,2.71l.26-.12,2-1A4,4,0,0,1,263.12,0c1.61,0,4.76,1.23,4.76,4.08a4.49,4.49,0,0,1-1.29,3.06,4.15,4.15,0,0,1,1.6,3.17,3.78,3.78,0,0,1-1.29,2.81,3.8,3.8,0,0,1,2.34,3.43c0,.55,0,2.23-3.49,5.53l-1.9,1.74L262,25.39a8,8,0,0,1-1.47,1l-.3.18a5.2,5.2,0,0,1-2.93.88,6.94,6.94,0,0,1-3.09-.74A4,4,0,0,1,251.36,27.86Z"/><path class="cls-1" d="M243.73,9.63c.17,0,.91-.11,1.05-.11a1.53,1.53,0,0,0,.59-.06V8.84l-.05-2.47,0-.11c-.34-.06-1.84.23-2.15.23s-.83,0-.83-1a2.26,2.26,0,0,1,1.9-2.3s.23.09.29.09l2.38-.15,3.06,0,1.95,0c2.53,0,3,.2,3,1.22,0,.68-.37.88-1.05,1.22a7.57,7.57,0,0,0-.85.23,13.8,13.8,0,0,0-.25,2c0,.09,0,1.68.05,1.76.31,0,1.9.06,2.1.12a.55.55,0,0,1,.48.56,2.2,2.2,0,0,1-.68,1.31,16.45,16.45,0,0,1-1.9.56l-.05,2.5v3l0,2.92c0,.09.06,1,.06,1.17s0,.79,0,.88c0,1-.54,2.38-1.5,2.38-.77,0-1.85-1.31-1.85-3.09a1.09,1.09,0,0,1,.06-.34l.65-2.3c.17-.6.43-2.81.43-2.81l0-4.11,0-.08a15.43,15.43,0,0,0-3.43.23l-.4,2.8-.45,2.38-.57,2a10.38,10.38,0,0,1-2.13,4.17c-.34.45-.51.62-1,.62-1.13,0-2.83-1.89-2.83-2.72a.54.54,0,0,1,.48-.59,11,11,0,0,0,4.2-5.27l.62-2.24a6.25,6.25,0,0,0,.11-.91,8.63,8.63,0,0,0-2.83.48,3.63,3.63,0,0,1-1.42.48c-.42,0-1-.42-1-1.3,0-.6.62-2.47,1.9-2.55Zm7.12-.14-.09-2.38a8.43,8.43,0,0,0,0-.88c0-.22-.22-.28-.42-.28a18.24,18.24,0,0,0-2.7.14c-.19.09-.19.17-.19.37s0,.59,0,.68L247.36,9c0,.42-.06.57.31.57s2.67,0,3.12-.06Zm2.86,12.16,0-.14.22-.17,2.5-.71,1.19-.39,2.1-1a11.69,11.69,0,0,0,3.46-2.44c.08-.11.19-.73.25-.82a1.2,1.2,0,0,1,1-.48c.54,0,1.79.37,1.79,1s-2,2.86-2.55,3.35l-1.82,1.67L260,23.18a14,14,0,0,1-1.28.8,2.33,2.33,0,0,1-1.39.45c-2.1,0-3.77-1.87-3.74-2.29,0,0,0-.06,0-.4ZM257.42,16c-.51.32-.62.34-.82.34a3.78,3.78,0,0,1-1.25-.34c-.14-.08-1.36-1.19-1.36-1.87,0-.42.37-.71.54-.88a1.43,1.43,0,0,0,.34.06c1.08,0,5.95-1.87,7.51-3.68-.17-.71.8-.77.88-.77.54,0,1.93.68,1.93,1.47,0,.49-.68.94-1.53,1.51-.26.17-1.28,1-1.5,1.16a14.4,14.4,0,0,0-1.45,1c-.17.11-.4.31-.57.4Zm4.2-11.82a4.91,4.91,0,0,0,.57-.25,3.62,3.62,0,0,1,.14-.43,1.06,1.06,0,0,1,.79-.48c.31,0,1.76.45,1.76,1.08s-.91,1.44-1.16,1.64-1,.63-1.14.74l-1.44,1c-.26.17-3.32,1.9-4.06,1.9-.51,0-2.66-.77-2.66-2.16,0-.17.05-.65.28-.65s.43.06.51.06a17.28,17.28,0,0,0,4.08-1.28Z"/><path class="cls-2" d="M6.4,27.92a4.47,4.47,0,0,1-3.91-2.27,5.36,5.36,0,0,1-.64-1.93c0-.13-.07-.38-.11-.54-.08-.4-.12-.61-.15-.78v0l-.27-2a1.5,1.5,0,0,0,0-.2l-.23-3.39L.78,13.33l-.26-2.4c0-.08-.09-.21-.18-.44A4.18,4.18,0,0,1,0,8.68,5.58,5.58,0,0,1,4.48,3.44h.07c1.33-.21,6-.57,7.33-.57,2.25,0,4.3.07,6.27.2l1.69.1A5.79,5.79,0,0,1,24,5.21a6,6,0,0,1,1.72,4,4.06,4.06,0,0,1-.47,1.85c-.07.14-.14.29-.19.38l-.67,3.76-.7,5.51a.19.19,0,0,0,0,.08L23.32,23v0a5.06,5.06,0,0,1-5.23,4.62H14.78l-5.65.05h-.9l-.39.05A10.79,10.79,0,0,1,6.4,27.92ZM16.73,11.18Zm0,0h0Z"/><path class="cls-2" d="M41.56,29.66c-2.6,0-4.87-2.74-4.87-5.87a4.61,4.61,0,0,1,.13-1c-1.69,1.8-3.13,2.6-4.65,2.6-2.4,0-5.77-1.61-5.77-5.19a3.57,3.57,0,0,1,1.11-2.67,3.75,3.75,0,0,1,1.2-.77,11.39,11.39,0,0,0,1.35-.65l1-.87a4.07,4.07,0,0,1-2.77-3.92c0-3.18,2.86-5.75,5.24-5.75a3.62,3.62,0,0,1,1.06.17l.64-.06,1-.07C36.54,2.45,39.78.83,41.56.83a4.52,4.52,0,0,1,4.52,4.45l1.05,0h.2l2.41.26c.95.09,1.82.21,2.57.35a3.73,3.73,0,0,1,3.14,3.61,6.1,6.1,0,0,1-2.23,4.11,6.62,6.62,0,0,1-.84.58l1,.79,1.66,1,.27.17h0a3.86,3.86,0,0,1,1.91,3.25c0,1.28-.64,2.33-2.29,3.77a6.09,6.09,0,0,1-3.93,1.87c-2,0-3.73-1.68-4.65-2.79l-.15.07a3.52,3.52,0,0,1-.42.15v.57h0a12,12,0,0,1-.39,3.71A4.29,4.29,0,0,1,41.56,29.66Zm9.73-11.95Zm4.09-1.53,0,0ZM30.1,16.05Zm21.18-3.67Zm-.94-4Z"/><path class="cls-2" d="M59.92,21.25a4.31,4.31,0,0,1-4.37-4.45c0-3.2,2.86-6.35,5.77-6.35a4.63,4.63,0,0,1,.92.11l1.15-.18,1-.16A33.79,33.79,0,0,1,70,9.79c3,0,4.27.15,9.53,1.11h0l1.62.25a15,15,0,0,1,2.32.41l.18.07A3.63,3.63,0,0,1,86.05,15a4.42,4.42,0,0,1-1.4,3,8.74,8.74,0,0,1-1.31,1.31,5.82,5.82,0,0,1-3.61,1.54A7.12,7.12,0,0,1,76.92,20l-.06,0-1.28-.31c-.21-.05-.49-.12-1-.28l-.63-.17-.33-.07L71.8,19l-2.14,0-.55.06-2.66.38-2.39.45a9.8,9.8,0,0,0-1.35.41A4.6,4.6,0,0,1,59.92,21.25Zm18.22-1.06Zm0,0h0Zm0,0Zm0,0Zm0,0Zm0,0Zm0,0Zm0,0Z"/><path class="cls-1" d="M20.45,20.32l-.34,2.22c-.24,1.49-1,1.88-2,1.88H14.76l-5.66.06-1,0c-.19,0-1.43.21-1.7.21-1.13,0-1.32-1.24-1.32-1.37s-.24-1.17-.26-1.35l-.27-2-.24-3.41L4,13l-.29-2.7a4.8,4.8,0,0,0-.42-1.16,1.57,1.57,0,0,1-.05-.48,2.33,2.33,0,0,1,1.79-2c1.19-.19,5.66-.53,6.83-.53,2,0,4,0,6.06.18l1.72.11a2.52,2.52,0,0,1,1.95,1,2.84,2.84,0,0,1,.85,1.8,1.25,1.25,0,0,1-.13.4,3.66,3.66,0,0,0-.48,1.24l-.69,3.86Zm-6.88-6.77,1.85.08h1.8c.21,0,1.25.11,1.32.11s.27-.08.32-.27.21-1.69.24-2l.19-1.94A1.48,1.48,0,0,0,19,8.87a1.28,1.28,0,0,0-.74-.21l-2-.13-2.54-.06L10,8.61c-.58,0-3.18.15-3.49.47a4,4,0,0,0-.16,1.51l.16,2.14,0,.87c.21.11.37.11,1.59.08ZM6.83,19.29l.26,2.41c.4.24.42.26.72.26l5.18.11L16.56,22l.87,0a1,1,0,0,0,.51-.08l.08-.34.23-2.6.19-2.83c-.19-.1-.24-.1-.69-.1-.16,0-.87-.06-1.11-.06l-2.3-.07H9.84c-.08,0-.84.1-1,.1a7.23,7.23,0,0,0-2.15.4v.45Z"/><path class="cls-1" d="M33.62,17.28s1.4-1.4,1.8-1.9l1.16-1.54a11.76,11.76,0,0,0,1.27-2.43l-.05-.11-2.49.29c-.21,0-1.13.19-1.34.24s-1.17.37-1.38.37a.93.93,0,0,1-1.06-.92,2.79,2.79,0,0,1,2-2.49c.1,0,.6.21.71.21s1-.1,1.16-.1l5.24-.4A2.15,2.15,0,0,0,40.31,7c-.76-.58-.84-.63-.84-1,0-1.32,1.8-2,2.09-2,1.29,0,1.29,1.51,1.29,1.83S42.69,8,42.69,8.08a.49.49,0,0,0,.16.37l.74,0L47,8.58l2.43.26c.85.08,1.64.19,2.33.32.19,0,.45.19.45.4s-1,2.3-2.43,2l-2.17-.39a19.85,19.85,0,0,0-2.25-.06l.56,1.06L47.24,14,49,15.72l.72.64,1.88,1.4,1.82,1.06c.11.07.56.34.56.6s-2.15,2.38-3,2.38-2-1.29-2.59-2.19l-1-1.48-1.24-2,0-.06-1.3-2.54c-.18-.34-.84-1.85-1-2.16a.47.47,0,0,0-.42-.27c-.51,0-.85,0-.85.24l-.08,2.75v2.59c0,.11.24.11.24.11l2.06.1c.4,0,1.27,0,1.27.64a4.22,4.22,0,0,1-.34,1.3c-.16.26-.21.29-.77.52-.24,0-1.9-.23-2.06-.23-.37,0-.37.18-.37.45,0,.1,0,.55,0,.63s-.06.19,0,.27l.08,2.69a10.15,10.15,0,0,1-.21,2.54,1.11,1.11,0,0,1-.82.72c-.61,0-1.62-1.11-1.62-2.62a14,14,0,0,1,.53-2,9.39,9.39,0,0,0,.27-2.51.3.3,0,0,0-.16-.08c-.11,0-.85.18-1,.21a11.69,11.69,0,0,1-1.58.24c-.43,0-.66-.58-.66-1,0-1,.76-2,1.19-2,0,0,.63.13.74.13l1.48,0,0-3.76a11.54,11.54,0,0,0-.08-1.66.45.45,0,0,0-.26-.14,2.74,2.74,0,0,0-.53.14l-.18.37-.85,1.85-.5.84c-.14.24-.64,1.43-.77,1.67l-1.32,2.17c-.16.26-2.73,3.84-4.1,3.84-.21,0-2.52-.22-2.52-1.94a.4.4,0,0,1,.16-.37,12.71,12.71,0,0,0,2.3-1.19Z"/><path class="cls-1" d="M69.52,15.75l-.8.08-2.8.39-2.49.48a9.61,9.61,0,0,0-2.32.77c-.75.47-.8.53-1.19.53a1.11,1.11,0,0,1-1.12-1.2c0-1.42,1.49-3.09,2.52-3.09.13,0,.71.13.84.13.29,0,2.25-.34,2.68-.39a30.62,30.62,0,0,1,5.18-.4c2.72,0,3.76.1,8.94,1.06.56.1,3.36.5,3.52.55s.32.13.32.37a8.75,8.75,0,0,1-1.46,1.7,3.33,3.33,0,0,1-1.61.84,5.43,5.43,0,0,1-1.35-.47,2,2,0,0,0-.24-.16l-1.83-.45c-.26-.06-1.5-.43-1.77-.48-.08,0-.42-.1-.5-.1l-2.12-.14Z"/><path class="cls-3" d="M105.71,14.76l-3.41.32c-.57.06-3.08.71-3.63.71a1,1,0,0,1-1-.9,2.47,2.47,0,0,1,1.1-1.77c.48-.29.57-.35,1.6-.35h.39l5.11-.58c.39,0,2.48-.13,2.93-.1l.06-.06a3.37,3.37,0,0,1,0-.55c0-.23,0-.23-.1-.35l-3.31.06c-.06,0-2.09.26-2.47.26a13,13,0,0,0-2,.19,3.28,3.28,0,0,1-.64.06.82.82,0,0,1-.87-.86c0-.42.19-.84,1-1.68l.25-.09,2.7-.16.42,0,4.79-.2.07-.06V7.88c0-.48-.13-.55-.42-.55a4.59,4.59,0,0,0-.77.07l-2.48.13h-.8l-2.9.35a11.62,11.62,0,0,0-1.51.29,5.36,5.36,0,0,1-1.09.29,1.11,1.11,0,0,1-1.22-1c0-.29.35-1.86,1.57-2l2.61-.36,4.34-.29V4.76c-.29-.19-1.67-.84-2-1-1.71-.26-1.9-.29-1.9-.74,0-1.06,1.9-2,2.51-2,1.19,0,2.76,1.87,3.53,3,.23.35.26.38.45.64h3l.48,0c.19,0,.26-.09.67-.93S114.33.84,115.9.84c1.19,0,2.93,1,2.93,1.67,0,.26-.1.29-1.13.48a4.21,4.21,0,0,0-2.76,1.71l4.31.25c.06,0,2.25.29,2.51.29,1.28.16,1.28.61,1.28.84,0,.93-1.64,2.06-2,2.06a2.41,2.41,0,0,1-.9-.23l-2.8-.45L114,7.27c-.36,0-2,0-2.41,0,0,.16-.2.93-.23,1.06a2.27,2.27,0,0,0,0,.45l3.19,0,3,.06c.22,0,1.22.16,1.41.16.93.07,1.06.29,1.19.55-.06.39-.35,1.9-1.35,1.9l-.93-.07-2.67-.25-.64,0h-3c-.51,0-.48.16-.48,1l5.78.38,3.7.29c1.58.13,1.93.16,1.93.71a3.54,3.54,0,0,1-.51,1.32,2.27,2.27,0,0,1-1.32.55l-4.28-.45-3.18-.23-2.19-.06v1.31l4,.42,4.18.58,4.5.87a3.94,3.94,0,0,1,1.25.38c0,.58-.09.74-.93,2a1.54,1.54,0,0,1-1.57.86,2.56,2.56,0,0,1-.87-.13l-3.54-1.15L114.81,19a6.93,6.93,0,0,0-1.64-.16l-.1,0,0,.1c.29.29,1.61,1.64,1.84,1.8l2.28,1.54c.22.16,1.8.87,2,1l2,.67a8.76,8.76,0,0,0,2.45.52c.48,0,.74,0,.74.32,0,.64-2.51,2.89-3.73,2.89-1.61,0-4.66-2.12-5.95-3.5l-1.7-1.8c-.71-.74-.78-.84-1.06-1.16s-1.16-1.67-1.39-2l-.09,0a14,14,0,0,1-3.25,4.24l-2.25,1.74-2.19,1.44a4.19,4.19,0,0,1-2.09,1c-1.48,0-4-1.71-4-2.93a1,1,0,0,1,.13-.42,2.93,2.93,0,0,1,.51-.13,9,9,0,0,0,2.89-.35l2.48-1,1.86-.93,2.58-1.61a4,4,0,0,0,1.15-1.61l-.16-.06-.87.13-2.6.58-1.87.54-2.34.9c-.61.23-2.09.78-2.64,1.07a3.18,3.18,0,0,1-1.16.32c-.8,0-1.09-.58-1.09-1.29,0-.55.42-2.38,1.58-2.76s9.74-2,11-2c.74,0,.81,0,.81-1a1.59,1.59,0,0,0-.1-.45Z"/><path class="cls-3" d="M131.53,22.19a8.13,8.13,0,0,0,4-6.05,6.18,6.18,0,0,0-.16-1.38,2.62,2.62,0,0,1-.29-.58c0-.87,1.1-1.45,1.39-1.45s1.25.36,1.25,1.71c0,4.88-3,12.63-5,12.63-.77,0-2.22-1.44-2.22-3A1.91,1.91,0,0,1,131.53,22.19Zm1.16-15c.83,0,4.27,2.35,4.27,3.48,0,.45-.67.7-1.06.7-.55,0-3.18-.74-3.34-.74-.74,0-2,0-2-.93A2.58,2.58,0,0,1,132.69,7.2Zm2.15-1.64s-.84,0-1.16,0a1.17,1.17,0,0,1-.87-1.12,2.67,2.67,0,0,1,1.74-2.22c1.19,0,1.41.26,2.48,1.45.64.77,1.54,1.8,1.54,2.44a.68.68,0,0,1-.61.71,15.7,15.7,0,0,1-2.64-1.07Zm10.83,2.67c0-.29-.09-1.44-.09-1.7-.07-.93-.07-1-.36-1.26a27.25,27.25,0,0,0-3.53.58,15.5,15.5,0,0,1-1.64.52,1.27,1.27,0,0,1-1.16-1.29c0-1.28,1.77-2.7,2.77-2.7.16,0,1,.13,1.15.13s.9-.06,1.16-.1c.55,0,1.41-.09,2.31-.09.74,0,4.09-.16,4.63-.16s4,.12,5.82.38c.39.07,2.06.23,2.38.36s.26.22.26.29c0,.61-1.58,2.79-2.89,2.79-.33,0-1.74-.48-2-.51s-1.9-.2-2.22-.23a9.84,9.84,0,0,0-.38,2.93l.06.09,3.67.2a4.22,4.22,0,0,1,3.92,2.92,1.23,1.23,0,0,1-.68,1.26,2.77,2.77,0,0,0-.7,1.77l0,3.27.32,3.64.42,2.25a5.15,5.15,0,0,1,.13,1c0,1.74-2.19,2.45-2.38,2.45a7.48,7.48,0,0,1-1.51-.62c-.23,0-2-.28-2.22-.28l-3.6-.17-3.83.1-3.12.32c-.06,0-2.06.52-2.22.52a1.67,1.67,0,0,1-1.41-1.35c0-.65.39-3.09.51-4,.07-.51.26-4.66.26-5.37,0-.48-.13-2.54-.13-3,0-.58,0-.65-.22-1a2.06,2.06,0,0,1-.39-.8A3.37,3.37,0,0,1,140.21,9a5.24,5.24,0,0,1,2.38-.58c2.47-.13,2.73-.13,3-.16ZM149.85,11l-.06-.1c-.32,0-1.83.07-2.16.07l-.09.06a12,12,0,0,0-.19,1.57c-.62,2.83-1.26,3.57-1.68,4a3.26,3.26,0,0,1-1.48.87,2.82,2.82,0,0,1-1-.29c-.13-.06-.87-.71-1.06-.84l-.07.07-.16,3.53v.49L141.75,23c0,.41,0,.67.45.67s2.9-.13,3.41-.16c1.25-.06,1.9-.06,4.66-.06.48,0,4.79,0,4.86,0,.45-.06.51-.25.54-.73s0-2.77,0-3.32a25.08,25.08,0,0,0-.16-3.6c-.19.13-.9.94-1.09,1.06a1.87,1.87,0,0,1-1.12.49,5.2,5.2,0,0,1-2.77-1.1c-.74-.77-.77-1.31-.74-2.76Zm-7.58,3.69a6.22,6.22,0,0,0,2.34-1.64,4,4,0,0,0,.71-1.8c0-.09,0-.19-.16-.19-.29,0-2.15.13-2.38.16-.42.07-.42.23-.42.61Zm2.44,3.44a6.88,6.88,0,0,0,.9.1,10.39,10.39,0,0,0,1-.22,14.27,14.27,0,0,1,1.86-.13,27.25,27.25,0,0,1,4.63.83c.23.07,1.29.2,1.48.29a.26.26,0,0,1,.13.26c0,.16-.74,2-1.9,2-.16,0-1-.2-1.12-.23a10.51,10.51,0,0,0-3.09-.58,8.91,8.91,0,0,0-3.28.52,18.79,18.79,0,0,1-1.8.64,1,1,0,0,1-.87-1,3.29,3.29,0,0,1,1.8-2.63ZM150,8.2a19.92,19.92,0,0,0-.13-2.54c0-.45,0-.61-.29-.61s-1.64,0-1.7,0c-.26.16-.32,2.51-.32,2.8s0,.29.13.35A17.81,17.81,0,0,0,150,8.2Zm2.48,2.67c-.55,0-.58,0-.58,2.44,0,1,.51,1.1,1.8,1.1.19,0,1.16-.1,1.25-.1.58,0,.65,0,.65-.23,0-.41-.2-2.25-.23-2.6,0-.19,0-.45-.55-.48Z"/><path class="cls-3" d="M170.11,13.25c0-.07-.13-2-.16-2.35-.1-1.09-.65-2.35-1-2.41-.71-.1-.77-.1-.9-.45a1.59,1.59,0,0,1-.23-.58,2.17,2.17,0,0,1,.65-1.67,4.94,4.94,0,0,1,2.08-1.38c.94,0,1.81,1,1.9,3.28l.13,2.76,0,4.21c0,.2-.06,1.1-.06,1.29,0,0,0,.06.06.13l.61-.07,3.15-.29,3.83-.09h3l2.73.13,8,.86c1.44.16,1.51.39,1.51.68,0,.87-2,2.8-2.83,2.8a7.31,7.31,0,0,1-1.22-.42l-2.8-.65a21.44,21.44,0,0,0-2.25-.41l-3.57-.13c-.32,0-.51,0-.51.51l0,7.75a2.66,2.66,0,0,1-.57,1.51,4.1,4.1,0,0,1-.87.36c-.64,0-1.71-1.42-1.71-3a5.82,5.82,0,0,1,.36-1.51,20.51,20.51,0,0,0,.35-3.38c0-.26-.09-2.06-.13-2.15s-.09-.2-.7-.16l-3.06.19-3.82.67-.58.2c-.49.25-1.22.64-1.67.93-.78.48-.87.55-1.16.55a1.21,1.21,0,0,1-1.29-1.26,5.14,5.14,0,0,1,1.48-2.83c.84-.38,1.38-.64,1.29-1.38Zm5.53,10.29-.81.86-2,1.71a5.19,5.19,0,0,1-2.51,1.19C169.56,27.3,168,26,168,25c0-.09.17-.93.65-.93,1.77,0,5.75-2.41,5.75-3.05,0-.1-.16-.58-.16-.68s.19-.77,1.67-.71c.39.13,1.55.49,1.55,1.45,0,.19,0,.26-.45.77Zm-.07-13.28-.19-2.41a6.81,6.81,0,0,0-.74-2.93c-.45-.51-.48-.55-.48-.9a3.43,3.43,0,0,1,1.57-2.31,10,10,0,0,1,3.76-.61c.74,0,4-.07,4.63-.07,1.55,0,3.19,0,4.34.9a1.93,1.93,0,0,1,.87,1.64c0,.19-.58.9-.64,1.06-.32,1.09-.84,7.62-.87,7.75-.26,1.12-.29,1.22-.48,1.41a2.88,2.88,0,0,1-1.29.62l-2,.06c-.64,0-3.44-.1-4-.1-1.22,0-2.63.13-2.92.13a5.06,5.06,0,0,1-.58.1c-.61,0-.87-1.16-1-1.8Zm2.19-5.15,5.79-.06,1.8,0c.35-.06.45-.74.45-1a4.13,4.13,0,0,0-.1-.45h-.42l-3.05-.06-4.09.19c-.25,0-.35.07-.41.16l0,1.16Zm.16,3.57,4-.06,3.66-.1,0-1.35,0-.06-.7,0-4.22,0a16.71,16.71,0,0,0-2.86.26v.32Zm4.21,3.19h3.22a5,5,0,0,0,.19-1.58l-.07-.06-.57-.07h-4.06c-.16,0-2.63.16-2.79.23a.31.31,0,0,0,0,.32l.06,1.09Zm4,7.9a1,1,0,0,1,1.09.78c0,.09-.13.48-.13.51a3,3,0,0,0,1.64,1.48c.61.22,3.31,1.35,3.89,1.54.84.29.93.32.93.61,0,.58-1.83,2.25-3,2.25a3.69,3.69,0,0,1-2.41-1.25c-.42-.42-2.25-2.22-2.57-2.6a3.51,3.51,0,0,1-.81-1.8A1.47,1.47,0,0,1,186.12,19.77Z"/></svg>