<svg id="レイヤー_1" data-name="レイヤー 1" xmlns="http://www.w3.org/2000/svg" viewBox="0 0 99.89 68.61"><defs><style>.cls-1{fill:#192c5f;}.cls-2{fill:#fff;}.cls-3{fill:#ffdb00;}</style></defs><title>アートボード 1</title><path class="cls-1" d="M14.88,27.09A4.47,4.47,0,0,1,11,24.82a5.06,5.06,0,0,1-.64-1.93c0-.12-.07-.38-.11-.54-.08-.4-.12-.6-.15-.78v0l-.27-2c0-.07,0-.14,0-.21L9.55,16l-.29-3.45L9,10.1c0-.07-.09-.21-.18-.44a4.14,4.14,0,0,1-.34-1.8A5.57,5.57,0,0,1,13,2.62l.07,0C14.36,2.4,19,2,20.36,2c2.25,0,4.3.06,6.27.19l1.69.1a5.76,5.76,0,0,1,4.15,2.06,6,6,0,0,1,1.72,4,4.1,4.1,0,0,1-.47,1.86c-.07.13-.15.28-.19.37l-.67,3.77-.7,5.5a.25.25,0,0,0,0,.08l-.35,2.23v0a5.06,5.06,0,0,1-5.23,4.61H23.26l-5.65.06h0l-.6,0h-.27l-.39.06A10.54,10.54,0,0,1,14.88,27.09ZM25.21,10.36Zm0,0h0Z"/><path class="cls-1" d="M50,28.84c-2.6,0-4.87-2.75-4.87-5.88a4.53,4.53,0,0,1,.13-1c-1.69,1.79-3.13,2.59-4.65,2.59-2.4,0-5.77-1.6-5.77-5.18a3.67,3.67,0,0,1,2.31-3.45,12.41,12.41,0,0,0,1.35-.64l1-.87a4.09,4.09,0,0,1-2.77-3.93c0-3.18,2.86-5.74,5.24-5.74a3.64,3.64,0,0,1,1.06.16l.64,0,1-.08C45,1.63,48.26,0,50,0a4.52,4.52,0,0,1,4.52,4.45l1,0,.2,0,2.41.26c1,.09,1.82.21,2.57.35a3.74,3.74,0,0,1,3.14,3.6,6.14,6.14,0,0,1-2.23,4.11,5,5,0,0,1-.84.58l1,.79,1.66,1,.27.17h0a3.85,3.85,0,0,1,1.91,3.25c0,1.27-.64,2.33-2.29,3.76a6,6,0,0,1-3.93,1.87c-2,0-3.74-1.68-4.65-2.78l-.15.06a3.52,3.52,0,0,1-.42.15v.57h0a12.28,12.28,0,0,1-.39,3.71A4.3,4.3,0,0,1,50,28.84Zm9.73-12Zm4.09-1.52,0,0Zm-25.28-.14Zm21.18-3.66Zm-.95-4h0Z"/><path class="cls-1" d="M68.39,20.42A4.3,4.3,0,0,1,64,16c0-3.21,2.85-6.35,5.77-6.35a4.63,4.63,0,0,1,.92.1l1.15-.18c.49-.08.79-.13,1-.15A33.79,33.79,0,0,1,78.5,9c3,0,4.27.14,9.53,1.11h0c.19,0,1,.17,1.62.25a14.46,14.46,0,0,1,2.32.42l.17.06a3.63,3.63,0,0,1,2.37,3.4,4.42,4.42,0,0,1-1.4,2.95,10,10,0,0,1-1.31,1.31A5.87,5.87,0,0,1,88.21,20a7,7,0,0,1-2.81-.82l-.07,0-1.27-.32c-.21,0-.49-.12-1-.27l-.63-.18-.33-.07-1.79-.11-2.14,0-.55.05-2.66.38-2.39.46a8.58,8.58,0,0,0-1.35.41A4.61,4.61,0,0,1,68.39,20.42Zm18.23-1.05Zm0,0Zm0,0Zm0,0Zm0,0h0Zm0,0Zm0,0Zm0,0Z"/><path class="cls-2" d="M28.93,19.5l-.35,2.22c-.23,1.48-1,1.88-2,1.88H23.24l-5.66,0-1,0c-.18,0-1.42.21-1.69.21-1.14,0-1.32-1.24-1.32-1.37s-.24-1.16-.27-1.35l-.26-2-.24-3.42L12.5,12.2l-.29-2.7a4.8,4.8,0,0,0-.42-1.17,1.27,1.27,0,0,1-.06-.47,2.35,2.35,0,0,1,1.8-2c1.19-.18,5.66-.53,6.83-.53,2,0,4,.06,6.05.19l1.72.1a2.59,2.59,0,0,1,2,1,2.84,2.84,0,0,1,.85,1.8,1.25,1.25,0,0,1-.13.4,3.74,3.74,0,0,0-.48,1.24l-.69,3.87Zm-6.88-6.77,1.85.07h1.8c.21,0,1.24.11,1.32.11s.27-.08.32-.26.21-1.7.24-2l.18-1.93A1.46,1.46,0,0,0,27.5,8a1.37,1.37,0,0,0-.74-.21l-2-.13-2.54,0-3.75.13c-.59,0-3.18.16-3.5.47a4.2,4.2,0,0,0-.15,1.51L15,11.91l0,.87c.21.1.37.1,1.59.08Zm-6.74,5.74.26,2.4c.4.24.42.27.71.27l5.19.1,3.57-.1.87,0a1,1,0,0,0,.5-.08l.08-.34.24-2.59.19-2.83c-.19-.11-.24-.11-.69-.11-.16,0-.87-.05-1.11-.05l-2.3-.08h-4.5a9,9,0,0,1-1,.11,7.2,7.2,0,0,0-2.15.39V16Z"/><path class="cls-2" d="M42.1,16.45s1.4-1.4,1.8-1.9L45.06,13a11.88,11.88,0,0,0,1.27-2.44l0-.1-2.49.29c-.21,0-1.13.18-1.35.24s-1.16.37-1.37.37A.93.93,0,0,1,40,10.45,2.8,2.8,0,0,1,42,8c.1,0,.6.22.71.22s1-.11,1.16-.11l5.24-.4a2.11,2.11,0,0,0-.32-1.45c-.76-.58-.84-.64-.84-1,0-1.32,1.8-1.95,2.09-1.95,1.29,0,1.29,1.5,1.29,1.82s-.16,2.06-.16,2.17a.47.47,0,0,0,.16.37l.74,0,3.39.16L57.89,8c.85.08,1.64.18,2.33.31.19,0,.45.19.45.4s-1,2.3-2.43,2l-2.17-.4a21,21,0,0,0-2.25,0l.55,1.06,1.35,1.79,1.8,1.72.72.64,1.87,1.4L61.94,18c.11.08.55.34.55.61S60.35,21,59.53,21s-2-1.3-2.59-2.2l-1-1.48-1.24-2,0,0-1.3-2.54c-.18-.35-.84-1.85-1-2.17a.46.46,0,0,0-.43-.26c-.5,0-.84,0-.84.23L51,13.25v2.6c0,.1.24.1.24.1.34,0,2,.11,2.06.11.4,0,1.27,0,1.27.63a4.15,4.15,0,0,1-.34,1.3c-.16.26-.22.29-.77.53-.24,0-1.91-.24-2.06-.24-.38,0-.38.19-.38.45a4.41,4.41,0,0,1,0,.63.72.72,0,0,0,0,.27l.08,2.7a10.68,10.68,0,0,1-.21,2.54,1.11,1.11,0,0,1-.82.71c-.61,0-1.62-1.11-1.62-2.62A14.4,14.4,0,0,1,49,21a9.33,9.33,0,0,0,.27-2.51.4.4,0,0,0-.16-.08c-.11,0-.85.19-1,.21a11.69,11.69,0,0,1-1.58.24c-.43,0-.67-.58-.67-.95,0-1,.77-2,1.19-2,.06,0,.64.14.74.14L49.22,16l0-3.75a11.68,11.68,0,0,0-.08-1.67.5.5,0,0,0-.26-.13,2.74,2.74,0,0,0-.53.13l-.19.37-.84,1.85c-.08.13-.43.72-.5.85s-.64,1.43-.77,1.66l-1.32,2.17c-.16.27-2.73,3.84-4.1,3.84-.22,0-2.52-.21-2.52-1.93a.39.39,0,0,1,.16-.37,14.21,14.21,0,0,0,2.3-1.19Z"/><path class="cls-2" d="M78,14.92l-.8.08-2.8.4-2.49.47a10.38,10.38,0,0,0-2.33.77c-.74.48-.79.53-1.19.53A1.11,1.11,0,0,1,67.28,16c0-1.43,1.48-3.1,2.52-3.1.13,0,.71.14.84.14.29,0,2.25-.35,2.67-.4a30.8,30.8,0,0,1,5.19-.4c2.72,0,3.75.11,8.94,1.06.55.11,3.36.5,3.52.56a.39.39,0,0,1,.31.37,8.63,8.63,0,0,1-1.45,1.69,3.39,3.39,0,0,1-1.61.85,5.46,5.46,0,0,1-1.35-.48c-.06,0-.21-.16-.24-.16l-1.83-.45c-.26-.05-1.5-.42-1.77-.47-.08,0-.42-.11-.5-.11L80.4,15Z"/><path class="cls-3" d="M10.19,43.93l-3.41.32c-.58.07-3.08.71-3.63.71a1,1,0,0,1-1-.9,2.48,2.48,0,0,1,1.09-1.77,2.25,2.25,0,0,1,1.61-.35h.39l5.11-.58c.39,0,2.48-.13,2.93-.1l.06-.06a3.37,3.37,0,0,1,0-.55c0-.22,0-.22-.1-.35l-3.31.06c-.06,0-2.09.26-2.47.26a14.15,14.15,0,0,0-2,.19,2.87,2.87,0,0,1-.64.07A.83.83,0,0,1,3.89,40c0-.42.19-.84,1-1.67l.26-.1,2.7-.16.42,0L13,37.86l.06-.07v-.74c0-.48-.12-.54-.41-.54a6,6,0,0,0-.77.06l-2.48.13h-.8l-2.9.35a13.64,13.64,0,0,0-1.51.29,4.78,4.78,0,0,1-1.09.29,1.11,1.11,0,0,1-1.22-1c0-.29.35-1.87,1.57-2l2.61-.35L10.42,34v-.07c-.29-.19-1.68-.83-2-1-1.71-.26-1.9-.29-1.9-.74,0-1.06,1.9-2,2.51-2,1.19,0,2.76,1.87,3.53,3,.23.36.26.39.45.65h3l.49,0c.19,0,.25-.1.67-.93S18.81,30,20.38,30c1.19,0,2.93,1,2.93,1.67,0,.26-.1.29-1.13.49a4.21,4.21,0,0,0-2.76,1.7l4.31.26c.06,0,2.25.29,2.5.29,1.29.16,1.29.61,1.29.83,0,.93-1.64,2.06-2,2.06a2.18,2.18,0,0,1-.9-.23l-2.8-.45-3.37-.19c-.36,0-2,0-2.42,0,0,.16-.19.93-.22,1.06a2.27,2.27,0,0,0,0,.45l3.18,0,3,.07c.22,0,1.22.16,1.41.16.93.06,1.06.29,1.19.54-.06.39-.35,1.9-1.35,1.9l-.93-.06-2.67-.26-.64,0h-3c-.52,0-.48.16-.48,1l5.78.39,3.7.29c1.58.13,1.93.16,1.93.7a3.64,3.64,0,0,1-.51,1.32,2.27,2.27,0,0,1-1.32.55L21,44l-3.18-.23-2.19-.06v1.32l4,.42,4.18.57,4.5.87a4,4,0,0,1,1.25.39c0,.58-.09.74-.93,2a1.53,1.53,0,0,1-1.57.87,2.84,2.84,0,0,1-.87-.13L22.6,48.85l-3.31-.71A8.26,8.26,0,0,0,17.65,48l-.1,0,0,.09c.29.29,1.61,1.64,1.83,1.8l2.29,1.55c.22.16,1.8.86,2,1l2,.68a8.86,8.86,0,0,0,2.45.51c.48,0,.74,0,.74.32,0,.64-2.51,2.89-3.73,2.89-1.61,0-4.67-2.12-5.95-3.5l-1.71-1.8c-.7-.74-.77-.84-1.06-1.16s-1.15-1.67-1.38-2l-.09,0a14,14,0,0,1-3.25,4.24L9.39,54.35,7.2,55.8a4.28,4.28,0,0,1-2.09,1c-1.48,0-4-1.7-4-2.93a1,1,0,0,1,.12-.41,2.47,2.47,0,0,1,.52-.13,8.69,8.69,0,0,0,2.89-.36l2.48-1L9,51l2.57-1.6a4,4,0,0,0,1.16-1.61l-.16-.07-.87.13-2.6.58L7.23,49l-2.34.9c-.61.22-2.09.77-2.64,1.06a3,3,0,0,1-1.16.32c-.8,0-1.09-.58-1.09-1.29,0-.54.42-2.37,1.58-2.76s9.74-2,11-2c.74,0,.8,0,.8-1a1.62,1.62,0,0,0-.09-.45Z"/><path class="cls-3" d="M36,51.36a8.13,8.13,0,0,0,4-6,6.18,6.18,0,0,0-.16-1.38,2.42,2.42,0,0,1-.29-.58c0-.86,1.1-1.44,1.39-1.44s1.25.35,1.25,1.7c0,4.89-3,12.64-5,12.64-.78,0-2.22-1.45-2.22-3A1.91,1.91,0,0,1,36,51.36Zm1.15-15c.84,0,4.28,2.34,4.28,3.47,0,.45-.68.71-1.06.71-.55,0-3.18-.74-3.34-.74-.74,0-2,0-2-.93A2.58,2.58,0,0,1,37.16,36.38Zm2.16-1.64s-.84,0-1.16,0a1.16,1.16,0,0,1-.87-1.13A2.69,2.69,0,0,1,39,31.36c1.19,0,1.41.26,2.47,1.45.65.77,1.55,1.8,1.55,2.44a.68.68,0,0,1-.61.71A16.54,16.54,0,0,1,39.8,34.9Zm10.83,2.67c0-.29-.09-1.45-.09-1.71-.07-.93-.07-1-.36-1.25a24,24,0,0,0-3.53.58c-.26.06-1.39.51-1.64.51a1.26,1.26,0,0,1-1.16-1.28c0-1.29,1.77-2.7,2.76-2.7.16,0,1,.12,1.16.12s.9-.06,1.16-.09c.55,0,1.41-.1,2.31-.1.74,0,4.09-.16,4.63-.16s4,.13,5.82.39c.39.06,2.06.22,2.38.35s.26.22.26.29c0,.61-1.58,2.8-2.9,2.8-.32,0-1.73-.49-2-.52s-1.9-.19-2.22-.22a9.77,9.77,0,0,0-.38,2.92l.06.1,3.66.19A4.22,4.22,0,0,1,64,40.56a1.22,1.22,0,0,1-.68,1.25,2.8,2.8,0,0,0-.71,1.77l0,3.28L63,50.49l.42,2.25a5.34,5.34,0,0,1,.12,1c0,1.73-2.18,2.44-2.37,2.44a8.46,8.46,0,0,1-1.52-.61c-.22,0-2-.29-2.21-.29l-3.6-.16L50,55.18l-3.12.33c-.06,0-2.06.51-2.22.51a1.67,1.67,0,0,1-1.41-1.35c0-.64.38-3.09.51-4,.07-.52.26-4.67.26-5.37,0-.49-.13-2.54-.13-3a1.36,1.36,0,0,0-.22-1,2,2,0,0,1-.39-.8,3.39,3.39,0,0,1,1.45-2.38,5.51,5.51,0,0,1,2.38-.58c2.47-.13,2.73-.13,3-.16Zm4.18,2.76-.06-.1c-.32,0-1.83.07-2.16.07L52,40.2a14.21,14.21,0,0,0-.2,1.58c-.61,2.83-1.25,3.57-1.67,4a3.32,3.32,0,0,1-1.48.86,2.82,2.82,0,0,1-1-.29c-.13-.06-.87-.7-1.06-.83l-.07.06-.16,3.54v.48l-.16,2.54c0,.42,0,.68.45.68s2.89-.13,3.41-.17c1.25-.06,1.9-.06,4.66-.06.48,0,4.79,0,4.85,0,.45-.07.52-.26.55-.74s0-2.77,0-3.31A24.94,24.94,0,0,0,60,44.9c-.19.13-.9.93-1.09,1.06a1.86,1.86,0,0,1-1.13.48A5.26,5.26,0,0,1,55,45.35c-.74-.77-.77-1.32-.74-2.77Zm-7.59,3.7a6.17,6.17,0,0,0,2.35-1.64,4.06,4.06,0,0,0,.71-1.8c0-.1,0-.19-.16-.19-.29,0-2.16.12-2.38.16-.42.06-.42.22-.42.61Zm2.45,3.44a8.85,8.85,0,0,0,.9.09,10.39,10.39,0,0,0,1-.22A16.27,16.27,0,0,1,53,47.05a26.6,26.6,0,0,1,4.63.84c.23.06,1.29.19,1.48.29a.24.24,0,0,1,.13.25c0,.16-.74,2-1.9,2a11.13,11.13,0,0,1-1.12-.23,10.47,10.47,0,0,0-3.09-.57,8.89,8.89,0,0,0-3.28.51,16.41,16.41,0,0,1-1.8.64.94.94,0,0,1-.87-1A3.29,3.29,0,0,1,49,47.21Zm5.27-9.94a19.92,19.92,0,0,0-.13-2.54c0-.45,0-.61-.29-.61s-1.64,0-1.7,0c-.26.16-.32,2.5-.32,2.79s0,.29.13.36A17.81,17.81,0,0,0,54.46,37.37ZM56.94,40c-.55,0-.58,0-.58,2.45,0,1,.51,1.09,1.8,1.09.19,0,1.16-.1,1.25-.1.58,0,.64,0,.64-.22,0-.42-.19-2.25-.22-2.61,0-.19,0-.45-.55-.48Z"/><path class="cls-3" d="M74.59,42.42c0-.06-.13-2-.17-2.35-.09-1.09-.64-2.34-1-2.41-.71-.09-.78-.09-.9-.45a1.59,1.59,0,0,1-.23-.58A2.22,2.22,0,0,1,72.91,35,5,5,0,0,1,75,33.58c.94,0,1.8,1,1.9,3.28L77,39.62l0,4.22c0,.19-.06,1.09-.06,1.28a.45.45,0,0,0,.06.13l.61-.06,3.15-.29,3.83-.1h3l2.73.13,8,.87c1.44.16,1.51.38,1.51.67,0,.87-2,2.8-2.83,2.8a7.31,7.31,0,0,1-1.22-.42L93,48.21a19.21,19.21,0,0,0-2.25-.42l-3.57-.13c-.32,0-.51,0-.51.52l0,7.74a2.69,2.69,0,0,1-.57,1.52,4.66,4.66,0,0,1-.87.35c-.65,0-1.71-1.42-1.71-3a5.91,5.91,0,0,1,.36-1.51,20.29,20.29,0,0,0,.35-3.38c0-.25-.1-2-.13-2.15s-.09-.19-.71-.16l-3,.19-3.83.68-.57.19c-.49.26-1.23.64-1.68.93-.77.49-.86.55-1.15.55a1.21,1.21,0,0,1-1.29-1.25,5.08,5.08,0,0,1,1.48-2.83c.84-.39,1.38-.65,1.29-1.39Zm5.53,10.29-.81.87-2,1.7a5.19,5.19,0,0,1-2.51,1.19c-.8,0-2.38-1.35-2.38-2.31,0-.1.16-.94.65-.94,1.76,0,5.75-2.41,5.75-3,0-.1-.16-.58-.16-.68s.19-.77,1.67-.7c.39.13,1.55.48,1.55,1.44,0,.2,0,.26-.45.78Zm-.07-13.28L79.86,37a6.86,6.86,0,0,0-.74-2.93c-.45-.51-.48-.54-.48-.9a3.43,3.43,0,0,1,1.57-2.31A10,10,0,0,1,84,30.27c.74,0,4-.07,4.63-.07,1.55,0,3.19,0,4.34.91a1.92,1.92,0,0,1,.87,1.63c0,.2-.58.9-.64,1.07-.32,1.09-.84,7.61-.87,7.74C92,42.68,92,42.78,91.82,43a3,3,0,0,1-1.29.61l-2,.06c-.64,0-3.44-.09-4-.09-1.22,0-2.63.13-2.92.13a4.87,4.87,0,0,1-.58.09c-.61,0-.87-1.16-1-1.8Zm2.19-5.14L88,34.22l1.8,0c.36-.07.45-.74.45-1a2.71,2.71,0,0,0-.09-.45h-.42l-3.05-.07-4.09.2c-.25,0-.35.06-.42.16l0,1.15Zm.16,3.57,4-.07,3.66-.09,0-1.35,0-.07-.71,0-4.21,0a16.72,16.72,0,0,0-2.86.25v.33ZM86.61,41h3.21a4.55,4.55,0,0,0,.2-1.58L90,39.4l-.58-.06H85.32c-.16,0-2.63.16-2.79.22s-.07.19,0,.32L82.56,41Zm4,7.91a1,1,0,0,1,1.09.77c0,.1-.13.48-.13.51a2.94,2.94,0,0,0,1.64,1.48c.61.23,3.31,1.35,3.89,1.55.84.29.93.32.93.61,0,.58-1.83,2.25-3,2.25a3.71,3.71,0,0,1-2.41-1.26c-.42-.41-2.25-2.22-2.57-2.6a3.47,3.47,0,0,1-.81-1.8A1.46,1.46,0,0,1,90.6,49Z"/><path class="cls-2" d="M20.06,63.61V65a1.28,1.28,0,0,1,.41-.29,1.27,1.27,0,0,1,.47-.09,1.22,1.22,0,0,1,.94.41,1.65,1.65,0,0,1,0,2.12,1.27,1.27,0,0,1-.95.42,1.13,1.13,0,0,1-.45-.09,1.16,1.16,0,0,1-.41-.28v.3h-.7v-3.9Zm.74,1.67a.76.76,0,0,0-.56.22.86.86,0,0,0-.21.6.84.84,0,0,0,.21.6.74.74,0,0,0,.56.24.71.71,0,0,0,.54-.24.93.93,0,0,0,0-1.19A.71.71,0,0,0,20.8,65.28Z"/><path class="cls-2" d="M23.92,63.54a.45.45,0,0,1,.32.14.46.46,0,0,1,0,.64.45.45,0,0,1-.77-.33.44.44,0,0,1,.13-.32A.46.46,0,0,1,23.92,63.54Zm-.36,1.16h.71v2.81h-.71Z"/><path class="cls-2" d="M27.42,65.09l-.43.44a.74.74,0,0,0-.49-.27.32.32,0,0,0-.18,0,.16.16,0,0,0-.07.13.18.18,0,0,0,0,.1.58.58,0,0,0,.21.13l.26.13a1.61,1.61,0,0,1,.56.41.79.79,0,0,1,.16.5.82.82,0,0,1-.28.62,1,1,0,0,1-.74.25,1.18,1.18,0,0,1-1-.48l.44-.47a1.09,1.09,0,0,0,.29.23.64.64,0,0,0,.29.09.33.33,0,0,0,.23-.07.19.19,0,0,0,.08-.15c0-.11-.1-.22-.31-.32l-.23-.12c-.46-.23-.68-.51-.68-.86a.75.75,0,0,1,.25-.57.92.92,0,0,1,.66-.23,1.2,1.2,0,0,1,.52.12A1.09,1.09,0,0,1,27.42,65.09Z"/><path class="cls-2" d="M28.51,64.7h.72L30,66.46l.81-1.76h.72l-1.76,3.84H29l.58-1.24Z"/><path class="cls-2" d="M32.68,64.7h.72v1.35a2.14,2.14,0,0,0,.05.55.55.55,0,0,0,.18.24.48.48,0,0,0,.29.09.49.49,0,0,0,.3-.09.49.49,0,0,0,.19-.25,2.4,2.4,0,0,0,0-.51V64.7h.7v1.19a2.92,2.92,0,0,1-.11,1,1.1,1.1,0,0,1-.42.5,1.25,1.25,0,0,1-.7.18,1.23,1.23,0,0,1-.75-.21,1.08,1.08,0,0,1-.4-.57,3.21,3.21,0,0,1-.09-.93Z"/><path class="cls-2" d="M36.66,63.61h.71v2.25l1-1.16h.89l-1.21,1.35,1.35,1.46h-.87l-1.19-1.3v1.3h-.71Z"/><path class="cls-2" d="M43.33,66.31H41.07a.71.71,0,0,0,.26.47.8.8,0,0,0,.54.18.91.91,0,0,0,.68-.28l.6.28a1.47,1.47,0,0,1-.53.47,1.72,1.72,0,0,1-.74.15,1.46,1.46,0,0,1-1.08-.42,1.38,1.38,0,0,1-.41-1,1.45,1.45,0,0,1,.41-1.07,1.4,1.4,0,0,1,1-.42,1.46,1.46,0,0,1,1.08.42,1.52,1.52,0,0,1,.42,1.12Zm-.7-.56a.75.75,0,0,0-.28-.38.75.75,0,0,0-.47-.15.85.85,0,0,0-.52.17.88.88,0,0,0-.26.36Z"/><path class="cls-2" d="M44.7,64.7h.7V65a1.51,1.51,0,0,1,.44-.28.92.92,0,0,1,.4-.08,1,1,0,0,1,.71.29,1,1,0,0,1,.24.73v1.86h-.7V66.28a3.23,3.23,0,0,0,0-.67.44.44,0,0,0-.16-.25.43.43,0,0,0-.28-.09.49.49,0,0,0-.36.15.68.68,0,0,0-.22.39,3.33,3.33,0,0,0,0,.57v1.13h-.7Z"/><path class="cls-2" d="M50.63,64.7h.72l.73,1.76.8-1.76h.73l-1.76,3.84h-.73l.58-1.24Z"/><path class="cls-2" d="M56.88,64.7h.7v2.81h-.7v-.3a1.28,1.28,0,0,1-.42.28,1.13,1.13,0,0,1-.45.09,1.26,1.26,0,0,1-.94-.42,1.62,1.62,0,0,1,0-2.12,1.2,1.2,0,0,1,.93-.41,1.28,1.28,0,0,1,.48.09,1.54,1.54,0,0,1,.41.29Zm-.74.58a.71.71,0,0,0-.55.23.93.93,0,0,0,0,1.19.68.68,0,0,0,.54.24.72.72,0,0,0,.55-.24.85.85,0,0,0,.22-.6.87.87,0,0,0-.22-.6A.74.74,0,0,0,56.14,65.28Z"/><path class="cls-2" d="M59.08,64.7h.71V65a1.09,1.09,0,0,1,.88-.39.86.86,0,0,1,.48.13.94.94,0,0,1,.34.37,1.11,1.11,0,0,1,.41-.37,1.08,1.08,0,0,1,.54-.13.9.9,0,0,1,.52.14.82.82,0,0,1,.33.36,1.86,1.86,0,0,1,.1.73v1.65h-.71V66.08a1.17,1.17,0,0,0-.12-.64.4.4,0,0,0-.36-.17.55.55,0,0,0-.53.39,1.64,1.64,0,0,0-.07.58v1.27h-.71V66.15a1.81,1.81,0,0,0-.06-.55.47.47,0,0,0-.17-.25.4.4,0,0,0-.27-.08.55.55,0,0,0-.32.1.7.7,0,0,0-.21.29,1.81,1.81,0,0,0-.07.6v1.25h-.71Z"/><path class="cls-2" d="M66.93,64.7h.7v2.81h-.7v-.3a1.28,1.28,0,0,1-.42.28,1.06,1.06,0,0,1-.45.09,1.26,1.26,0,0,1-.94-.42,1.65,1.65,0,0,1,0-2.12,1.22,1.22,0,0,1,.93-.41,1.28,1.28,0,0,1,.48.09,1.4,1.4,0,0,1,.41.29Zm-.74.58a.71.71,0,0,0-.55.23.93.93,0,0,0,0,1.19.74.74,0,0,0,1.09,0,.81.81,0,0,0,.22-.6.82.82,0,0,0-.22-.6A.72.72,0,0,0,66.19,65.28Z"/><path class="cls-2" d="M71.22,64.7h.7v2.41a1.57,1.57,0,0,1-.29,1,1.4,1.4,0,0,1-1.16.46,2.29,2.29,0,0,1-.69-.1,1.21,1.21,0,0,1-.48-.31,1.15,1.15,0,0,1-.28-.48h.77a.91.91,0,0,0,.27.18,1.14,1.14,0,0,0,.39.06,1,1,0,0,0,.45-.09.56.56,0,0,0,.25-.23,1.27,1.27,0,0,0,.07-.48,1.53,1.53,0,0,1-.39.27,1.34,1.34,0,0,1-.46.08,1.28,1.28,0,0,1-1-.41,1.44,1.44,0,0,1-.39-1A1.46,1.46,0,0,1,69.43,65a1.25,1.25,0,0,1,.9-.36,1.13,1.13,0,0,1,.45.09,1.24,1.24,0,0,1,.44.29Zm-.73.58a.72.72,0,0,0-.55.23.75.75,0,0,0-.22.56.79.79,0,0,0,.22.58.76.76,0,0,0,.56.22.7.7,0,0,0,.54-.22.89.89,0,0,0,0-1.15A.76.76,0,0,0,70.49,65.28Z"/><path class="cls-2" d="M75.5,64.7h.71v2.81H75.5v-.3a1.25,1.25,0,0,1-.41.28,1.13,1.13,0,0,1-.45.09,1.27,1.27,0,0,1-1-.42,1.48,1.48,0,0,1-.39-1A1.54,1.54,0,0,1,73.68,65a1.22,1.22,0,0,1,.94-.41,1.27,1.27,0,0,1,.47.09,1.28,1.28,0,0,1,.41.29Zm-.74.58a.68.68,0,0,0-.54.23.8.8,0,0,0-.22.59.84.84,0,0,0,.22.6.71.71,0,0,0,.54.24.71.71,0,0,0,.55-.24.81.81,0,0,0,.22-.6.82.82,0,0,0-.22-.6A.72.72,0,0,0,74.76,65.28Z"/><path class="cls-2" d="M77.8,63.66h.7v1h.42v.61H78.5v2.2h-.7v-2.2h-.36V64.7h.36Z"/><path class="cls-2" d="M82.17,64.7h.7v2.81h-.7v-.3a1.28,1.28,0,0,1-.42.28,1.13,1.13,0,0,1-.45.09,1.26,1.26,0,0,1-.94-.42,1.62,1.62,0,0,1,0-2.12,1.2,1.2,0,0,1,.93-.41,1.28,1.28,0,0,1,.48.09,1.54,1.54,0,0,1,.41.29Zm-.74.58a.71.71,0,0,0-.55.23.93.93,0,0,0,0,1.19.68.68,0,0,0,.54.24A.72.72,0,0,0,82,66.7a.85.85,0,0,0,.22-.6.87.87,0,0,0-.22-.6A.74.74,0,0,0,81.43,65.28Z"/></svg>